<svg xmlns="http://www.w3.org/2000/svg" width="800" height="500" viewBox="0 0 800 500"><defs><style>@import url(https://fonts.googleapis.com/css2?family=Cormorant+Garamond:wght@700&amp;family=DM+Sans:wght@300;500&amp;display=swap);.wm{font-family:&apos;Cormorant Garamond&apos;,Georgia,serif;font-weight:700}.sub{font-family:&apos;DM Sans&apos;,Arial,sans-serif;font-weight:300;letter-spacing:.2em}</style></defs><rect width="360" height="140" x="20" y="20" fill="#FFF" stroke="#EDE7DA" stroke-width="1" rx="4"/><text x="36" y="38" fill="#9CA3AF" font-family="'DM Sans',Arial,sans-serif" font-size="8" letter-spacing="2">FULL LOCKUP - LIGHT</text><g transform="translate(48, 60)"><circle cx="22" cy="22" r="21" fill="none" stroke="#0B1F3A" stroke-width="1" opacity=".08"/><rect width="20" height="13" x="3" y="15" fill="none" stroke="#0B1F3A" stroke-width="2.4" rx="6.5"/><rect width="20" height="13" x="21" y="15" fill="none" stroke="#C9992A" stroke-width="2.4" rx="6.5"/><rect width="4" height="9" x="20" y="17" fill="#FFF"/><circle cx="22" cy="21.5" r="2.4" fill="#C9992A"/><path fill="none" stroke="#0B1F3A" stroke-linecap="round" stroke-width="1.2" d="M13 10 Q22 5 31 10" opacity=".2"/><path fill="none" stroke="#C9992A" stroke-linecap="round" stroke-width="1.2" d="M13 33 Q22 38 31 33" opacity=".4"/></g><text x="106" y="84" fill="#0B1F3A" class="wm" font-size="32">TrustLink</text><text x="107" y="100" fill="#C9992A" class="sub" font-size="9">GROUP · IKIMINA</text><rect width="360" height="140" x="400" y="20" fill="#0B1F3A" rx="4"/><text x="416" y="38" fill="rgba(255,255,255,0.3)" font-family="'DM Sans',Arial,sans-serif" font-size="8" letter-spacing="2">FULL LOCKUP - DARK</text><g transform="translate(428, 60)"><circle cx="22" cy="22" r="21" fill="none" stroke="#FFF" stroke-width="1" opacity=".1"/><rect width="20" height="13" x="3" y="15" fill="none" stroke="#FFF" stroke-width="2.4" rx="6.5"/><rect width="20" height="13" x="21" y="15" fill="none" stroke="#E8B84B" stroke-width="2.4" rx="6.5"/><rect width="4" height="9" x="20" y="17" fill="#0B1F3A"/><circle cx="22" cy="21.5" r="2.4" fill="#E8B84B"/><path fill="none" stroke="#FFF" stroke-linecap="round" stroke-width="1.2" d="M13 10 Q22 5 31 10" opacity=".15"/><path fill="none" stroke="#E8B84B" stroke-linecap="round" stroke-width="1.2" d="M13 33 Q22 38 31 33" opacity=".45"/></g><text x="486" y="84" fill="#FFF" class="wm" font-size="32">TrustLink</text><text x="487" y="100" fill="#E8B84B" class="sub" font-size="9">GROUP · IKIMINA</text><rect width="160" height="140" x="20" y="180" fill="#F7F3EC" stroke="#EDE7DA" stroke-width="1" rx="4"/><text x="36" y="198" fill="#9CA3AF" font-family="'DM Sans',Arial,sans-serif" font-size="8" letter-spacing="2">ICON ONLY</text><g transform="translate(68, 208) scale(1.4)"><circle cx="22" cy="22" r="21" fill="none" stroke="#0B1F3A" stroke-width="1" opacity=".08"/><rect width="20" height="13" x="3" y="15" fill="none" stroke="#0B1F3A" stroke-width="2.4" rx="6.5"/><rect width="20" height="13" x="21" y="15" fill="none" stroke="#C9992A" stroke-width="2.4" rx="6.5"/><rect width="4" height="9" x="20" y="17" fill="#F7F3EC"/><circle cx="22" cy="21.5" r="2.4" fill="#C9992A"/><path fill="none" stroke="#0B1F3A" stroke-linecap="round" stroke-width="1.2" d="M13 10 Q22 5 31 10" opacity=".2"/><path fill="none" stroke="#C9992A" stroke-linecap="round" stroke-width="1.2" d="M13 33 Q22 38 31 33" opacity=".4"/></g><rect width="180" height="140" x="200" y="180" fill="#FFF" stroke="#EDE7DA" stroke-width="1" rx="4"/><text x="216" y="198" fill="#9CA3AF" font-family="'DM Sans',Arial,sans-serif" font-size="8" letter-spacing="2">STACKED</text><g transform="translate(264, 208)"><rect width="20" height="13" x="3" y="15" fill="none" stroke="#0B1F3A" stroke-width="2.4" rx="6.5"/><rect width="20" height="13" x="21" y="15" fill="none" stroke="#C9992A" stroke-width="2.4" rx="6.5"/><rect width="4" height="9" x="20" y="17" fill="#FFF"/><circle cx="22" cy="21.5" r="2.4" fill="#C9992A"/></g><text x="290" y="280" fill="#0B1F3A" class="wm" font-size="22" text-anchor="middle">TrustLink</text><text x="290" y="294" fill="#C9992A" class="sub" font-size="7.5" text-anchor="middle">GROUP · IKIMINA</text><rect width="180" height="140" x="400" y="180" fill="#FFF" stroke="#EDE7DA" stroke-width="1" rx="4"/><text x="416" y="198" fill="#9CA3AF" font-family="'DM Sans',Arial,sans-serif" font-size="8" letter-spacing="2">MONO - NAVY</text><g transform="translate(416, 210)"><circle cx="22" cy="22" r="21" fill="none" stroke="#0B1F3A" stroke-width="1" opacity=".08"/><rect width="20" height="13" x="3" y="15" fill="none" stroke="#0B1F3A" stroke-width="2.4" rx="6.5"/><rect width="20" height="13" x="21" y="15" fill="none" stroke="#0B1F3A" stroke-width="2.4" rx="6.5"/><rect width="4" height="9" x="20" y="17" fill="#FFF"/><circle cx="22" cy="21.5" r="2.4" fill="#0B1F3A"/></g><text x="486" y="267" fill="#0B1F3A" class="wm" font-size="22">TrustLink</text><text x="487" y="281" fill="#0B1F3A" class="sub" font-size="7.5">GROUP · IKIMINA</text><rect width="180" height="140" x="600" y="180" fill="#0B1F3A" rx="4"/><text x="616" y="198" fill="rgba(255,255,255,0.3)" font-family="'DM Sans',Arial,sans-serif" font-size="8" letter-spacing="2">MONO - WHITE</text><g transform="translate(616, 210)"><circle cx="22" cy="22" r="21" fill="none" stroke="#FFF" stroke-width="1" opacity=".1"/><rect width="20" height="13" x="3" y="15" fill="none" stroke="#FFF" stroke-width="2.4" rx="6.5"/><rect width="20" height="13" x="21" y="15" fill="none" stroke="#FFF" stroke-width="2.4" rx="6.5"/><rect width="4" height="9" x="20" y="17" fill="#0B1F3A"/><circle cx="22" cy="21.5" r="2.4" fill="#FFF"/></g><text x="686" y="267" fill="#FFF" class="wm" font-size="22">TrustLink</text><text x="687" y="281" fill="#FFF" class="sub" font-size="7.5">GROUP · IKIMINA</text><rect width="80" height="80" x="20" y="340" fill="#F7F3EC" stroke="#EDE7DA" stroke-width="1" rx="4"/><text x="36" y="356" fill="#9CA3AF" font-family="'DM Sans',Arial,sans-serif" font-size="7" letter-spacing="1">32px</text><g transform="translate(36, 362) scale(0.73)"><rect width="20" height="13" x="3" y="15" fill="none" stroke="#0B1F3A" stroke-width="3" rx="6.5"/><rect width="20" height="13" x="21" y="15" fill="none" stroke="#C9992A" stroke-width="3" rx="6.5"/><rect width="4" height="9" x="20" y="17" fill="#F7F3EC"/><circle cx="22" cy="21.5" r="3" fill="#C9992A"/></g><rect width="640" height="80" x="120" y="340" fill="#FFFBF0" stroke="#E8B84B" stroke-dasharray="4 3" stroke-width="1" rx="4"/><text x="136" y="358" fill="#C9992A" font-family="'DM Sans',Arial,sans-serif" font-size="8" letter-spacing="1.5">CLEAR SPACE &amp; SAFE ZONE RULES</text><text x="136" y="374" fill="#6B7280" font-family="'DM Sans',Arial,sans-serif" font-size="9">Minimum clear space = height of the chain-link icon on all four sides.</text><text x="136" y="390" fill="#6B7280" font-family="'DM Sans',Arial,sans-serif" font-size="9">Minimum print size: 20mm wide (full lockup) · 8mm wide (icon only).</text><text x="136" y="406" fill="#6B7280" font-family="'DM Sans',Arial,sans-serif" font-size="9">For embroidery: use icon-only variant · minimum 25mm · navy or gold thread.</text><rect width="760" height="40" x="20" y="440" fill="#FFF" stroke="#EDE7DA" stroke-width="1" rx="4"/><rect width="60" height="24" x="28" y="448" fill="#0B1F3A" rx="2"/><text x="96" y="462" fill="#6B7280" font-family="'DM Sans',Arial,sans-serif" font-size="8">#0B1F3A</text><rect width="60" height="24" x="148" y="448" fill="#C9992A" rx="2"/><text x="216" y="462" fill="#6B7280" font-family="'DM Sans',Arial,sans-serif" font-size="8">#C9992A</text><rect width="60" height="24" x="268" y="448" fill="#E8B84B" rx="2"/><text x="336" y="462" fill="#6B7280" font-family="'DM Sans',Arial,sans-serif" font-size="8">#E8B84B</text><rect width="60" height="24" x="388" y="448" fill="#F7F3EC" stroke="#EDE7DA" stroke-width="1" rx="2"/><text x="456" y="462" fill="#6B7280" font-family="'DM Sans',Arial,sans-serif" font-size="8">#F7F3EC</text><text x="540" y="460" fill="#9CA3AF" font-family="'DM Sans',Arial,sans-serif" font-size="8" letter-spacing="1">TrustLink Group Ikimina · Brand Asset · v1.0 · 2026</text></svg>