<svg xmlns="http://www.w3.org/2000/svg" width="400" height="400" viewBox="0 0 400 400"><defs><style>.seal-text{font-family:&apos;DM Sans&apos;,Arial,sans-serif;font-weight:500;letter-spacing:.18em}.seal-wm{font-family:&apos;Cormorant Garamond&apos;,Georgia,serif;font-weight:700}</style><path id="outerArc" fill="none" d="M 200,200 m -158,0 a 158,158 0 1,1 316,0 a 158,158 0 1,1 -316,0"/><path id="innerArc" fill="none" d="M 200,200 m -128,0 a 128,128 0 1,1 256,0 a 128,128 0 1,1 -256,0"/><path id="outerArcBot" fill="none" d="M 200,200 m -152,0 a 152,152 0 0,0 304,0"/></defs><circle cx="200" cy="200" r="185" fill="none" stroke="#0B1F3A" stroke-width="2.5"/><circle cx="200" cy="200" r="178" fill="none" stroke="#C9992A" stroke-dasharray="3 4" stroke-width=".8"/><circle cx="200" cy="200" r="170" fill="none" stroke="#0B1F3A" stroke-width="1"/><text fill="#0B1F3A" class="seal-text" font-size="11.5"><textPath href="#outerArc" startOffset="4%">TRUSTLINK GROUP IKIMINA · SAVINGS &amp; INVESTMENT · RWANDA ·</textPath></text><circle cx="200" cy="200" r="140" fill="none" stroke="#0B1F3A" stroke-width=".6" opacity=".3"/><circle cx="200" cy="200" r="135" fill="#F7F3EC" stroke="#C9992A" stroke-width="1.2"/><g fill="#C9992A" opacity=".7"><polygon points="200 50 202.5 56 200 54 197.5 56" transform="rotate(0,200,200)"/><polygon points="200 50 202.5 56 200 54 197.5 56" transform="rotate(45,200,200)"/><polygon points="200 50 202.5 56 200 54 197.5 56" transform="rotate(90,200,200)"/><polygon points="200 50 202.5 56 200 54 197.5 56" transform="rotate(135,200,200)"/><polygon points="200 50 202.5 56 200 54 197.5 56" transform="rotate(180,200,200)"/><polygon points="200 50 202.5 56 200 54 197.5 56" transform="rotate(225,200,200)"/><polygon points="200 50 202.5 56 200 54 197.5 56" transform="rotate(270,200,200)"/><polygon points="200 50 202.5 56 200 54 197.5 56" transform="rotate(315,200,200)"/></g><g fill="#0B1F3A" opacity=".25"><circle cx="200" cy="64" r="2.5"/><circle cx="200" cy="64" r="2.5" transform="rotate(30,200,200)"/><circle cx="200" cy="64" r="2.5" transform="rotate(60,200,200)"/><circle cx="200" cy="64" r="2.5" transform="rotate(90,200,200)"/><circle cx="200" cy="64" r="2.5" transform="rotate(120,200,200)"/><circle cx="200" cy="64" r="2.5" transform="rotate(150,200,200)"/><circle cx="200" cy="64" r="2.5" transform="rotate(180,200,200)"/><circle cx="200" cy="64" r="2.5" transform="rotate(210,200,200)"/><circle cx="200" cy="64" r="2.5" transform="rotate(240,200,200)"/><circle cx="200" cy="64" r="2.5" transform="rotate(270,200,200)"/><circle cx="200" cy="64" r="2.5" transform="rotate(300,200,200)"/><circle cx="200" cy="64" r="2.5" transform="rotate(330,200,200)"/></g><line x1="110" x2="152" y1="188" y2="188" stroke="#C9992A" stroke-width=".8" opacity=".6"/><line x1="248" x2="290" y1="188" y2="188" stroke="#C9992A" stroke-width=".8" opacity=".6"/><line x1="120" x2="280" y1="230" y2="230" stroke="#C9992A" stroke-width=".6" opacity=".4"/><g transform="translate(174, 138) scale(1.18)"><rect width="20" height="13" x="3" y="15" fill="none" stroke="#0B1F3A" stroke-width="2.8" rx="6.5"/><rect width="20" height="13" x="21" y="15" fill="none" stroke="#C9992A" stroke-width="2.8" rx="6.5"/><rect width="4" height="9" x="20" y="17" fill="#F7F3EC"/><circle cx="22" cy="21.5" r="2.8" fill="#C9992A"/><path fill="none" stroke="#0B1F3A" stroke-linecap="round" stroke-width="1.4" d="M13 10 Q22 5 31 10" opacity=".25"/><path fill="none" stroke="#C9992A" stroke-linecap="round" stroke-width="1.4" d="M13 33 Q22 38 31 33" opacity=".5"/></g><text x="200" y="205" fill="#0B1F3A" class="seal-wm" font-size="24" text-anchor="middle">TrustLink</text><text x="200" y="221" fill="#C9992A" class="seal-text" font-size="7.5" text-anchor="middle">GROUP · IKIMINA</text><text fill="#0B1F3A" class="seal-text" font-size="9.5"><textPath href="#outerArcBot" startOffset="15%">EST. JANUARY 2026 · BUGESERA, RWANDA</textPath></text><g fill="#C9992A" opacity=".5"><rect width="6" height="6" x="197" y="245" rx="1" transform="rotate(45,200,248)"/></g></svg>